<svg xmlns="http://www.w3.org/2000/svg" viewBox="0 0 240 155" role="img" aria-hidden="true">
  <path fill="#26211d" fill-rule="evenodd" d="M147 58L144 62L143 64L142 67L144 71L149 72L149 82L146 85L146 82L143 82L143 85L144 102L145 104L148 105L150 107L150 112L151 115L152 117L153 119L155 122L161 128L161 132L159 132L160 138L174 139L185 138L192 137L194 136L195 134L195 131L193 129L193 132L192 135L190 133L190 129L191 127L192 125L202 115L203 113L203 110L205 105L208 105L210 103L211 101L212 96L212 87L211 84L209 80L207 80L206 83L205 73L207 69L210 69L212 67L212 63L211 61L210 59L209 58L205 55L196 54L186 54L183 56L180 57L178 57L174 55L166 55L162 57L159 57L153 55Z M189 122L192 123L189 127L188 129L188 136L177 137L172 137L165 135L165 131L162 126L164 125L165 123L166 126L168 127L170 128L176 128L177 126L181 127L182 124L185 126Z M165 119L168 118L170 119L172 121L168 122L167 120Z M153 108L157 109L157 111L161 116L163 117L166 118L163 122L162 126L156 120L154 117L153 115L152 112Z M174 100L174 105L177 110L169 110L170 104Z M197 98L199 102L202 103L202 111L201 113L199 116L195 120L193 121L188 119L191 118L194 115L195 111L195 103Z M183 97L184 101L185 102L186 104L186 108L183 109L181 109L179 107L179 105L180 104L180 101Z M169 91L186 92L186 94L185 96L181 95L181 97L179 99L178 101L177 105L176 100L175 98L172 94L170 94L169 98L167 100L165 93Z M205 85L210 87L210 97L209 101L207 103L203 99L201 98L202 94L201 93L201 90L203 88L202 87Z M151 82L152 86L152 88L152 90L153 92L152 94L153 99L151 105L149 104L147 103L145 99L145 88L147 86L148 86L150 84Z M188 77L189 82L188 85L185 83L185 78Z M167 76L169 78L168 82L170 84L168 86L166 84Z M178 59L177 63L174 62Z M165 58L171 58L169 60Z M150 57L153 57L159 58L161 60L160 63L158 64L157 71L155 72L151 72L149 68L150 67L149 65L145 64L150 58Z M191 55L193 55L197 57L205 57L209 62L206 65L206 68L204 72L202 74L197 73L197 66L195 64L195 73L196 74L196 88L195 98L194 106L193 113L192 115L189 116L184 118L176 122L171 117L168 116L166 116L163 115L159 111L158 108L158 79L159 70L161 65L174 66L173 68L173 70L175 71L180 71L178 84L177 84L176 75L174 73L173 85L171 83L171 78L169 74L167 73L166 71L164 72L165 80L165 82L165 85L164 89L167 87L176 86L178 86L178 89L170 89L167 90L164 92L163 96L162 100L163 111L164 106L166 108L167 110L168 112L165 113L175 113L179 112L183 110L189 110L191 109L191 101L190 95L189 93L188 92L186 91L189 89L180 86L184 86L185 87L189 87L189 85L190 84L189 74L189 71L187 72L185 70L183 73L182 70L179 69L180 67L177 67L175 65L192 64L192 61L190 60L190 57Z M190 21L188 22L189 24Z M64 20L63 22L64 24L67 26L65 31L54 32L50 32L42 25L40 27L34 28L33 30L33 34L37 42L35 45L39 49L41 55L39 57L38 71L38 96L39 111L41 120L42 123L46 127L48 129L52 133L61 137L79 137L87 133L90 133L93 130L95 127L96 125L98 120L99 117L100 112L101 106L102 97L103 85L103 80L103 71L101 64L101 55L99 53L101 51L103 48L104 43L106 35L105 29L103 28L101 28L99 27L98 29L98 31L96 33L87 33L78 31L78 29L79 21L76 20L74 20L72 21L67 21Z M57 130L59 130L58 133L57 133Z M52 116L60 116L59 120L61 122L63 121L64 116L65 124L67 126L68 129L66 130L65 131L61 130L60 126L58 124L55 124L54 126L52 130L49 127L50 121L51 121L53 121L55 120L54 118Z M50 114L51 116L49 118L48 116Z M90 112L94 112L93 115Z M81 110L88 110L88 112L86 114L83 113L83 111Z M62 109L64 111L66 112L57 112L60 111Z M55 108L58 109L53 109Z M42 98L55 99L50 101L50 104L51 105L50 109L47 108L45 110L44 113L47 115L46 117L46 125L44 122L43 120L43 116L41 112Z M54 98L68 97L70 99L71 107L72 121L72 136L64 136L60 134L64 133L69 131L69 125L67 123L66 115L68 113L67 109L63 110L62 108L60 107L57 108L58 105L63 103L63 101L61 100L56 100Z M99 91L100 97L99 107L97 114L95 110L93 105L90 107L90 99L92 99L95 97L97 95Z M48 85L49 86L50 85L50 89L47 88Z M62 80L63 82L64 84L62 86Z M88 74L90 75L92 76L94 81L96 83L97 85L97 91L96 94L93 97L90 97L88 95L89 93L90 92L93 91L94 88L91 90L88 91L87 89L88 86L85 88L84 93L83 91L82 90L79 88L81 90L81 93L83 94L83 97L79 96L78 94L78 91L76 88L77 83L78 80L83 75Z M48 69L50 72L47 72Z M44 67L46 70L44 72Z M62 63L64 65L65 68L63 70L61 68L60 66Z M65 57L67 57L68 58L71 59L71 61L69 67L66 65L65 62L63 60L61 60L60 66L57 66L57 67L57 70L57 71L60 71L61 73L63 75L65 73L66 71L69 71L70 74L70 76L68 82L64 81L63 77L60 78L60 81L58 82L57 86L58 88L60 91L64 90L65 88L66 87L68 87L70 89L70 91L70 93L68 95L56 95L40 96L39 90L41 71L44 72L48 77L46 79L45 82L42 83L43 88L46 89L49 92L50 92L52 88L54 88L54 86L53 85L52 82L51 82L50 81L48 76L51 74L51 70L52 71L54 70L53 65L49 64L46 62L45 65L43 65L40 65L40 61L42 59L47 58L49 59Z M99 56L100 59L99 63L101 71L100 89L98 83L97 81L94 76L91 73L82 73L77 77L76 79L75 83L75 91L77 96L78 98L84 98L84 107L81 107L78 110L79 113L81 114L83 117L85 117L89 115L90 117L93 117L95 115L96 113L97 117L96 120L94 125L93 127L89 131L87 132L82 134L79 134L76 136L74 134L73 122L72 107L71 92L72 72L71 68L72 59L74 57L92 57Z M44 50L47 53L45 55L42 54Z M41 42L46 43L42 44L39 46L39 43Z M73 41L81 41L97 42L98 43L100 44L99 46L97 49L93 53L88 53L69 51L70 47L72 49L72 47L71 46L70 44L67 47L67 50L65 52L61 53L55 53L54 54L48 53L43 47L45 46L46 45L49 44L56 43Z M101 30L103 30L105 32L104 36L102 42L100 44L99 42L100 37L99 34L99 32Z M71 23L73 23L76 23L78 24L77 33L79 34L88 34L97 35L98 36L100 37L95 39L92 38L84 37L66 37L57 39L49 40L43 39L43 38L41 36L42 34L40 33L35 34L34 32L35 30L38 28L43 28L49 34L53 34L66 33L68 31Z M174 15L173 19L172 19L171 23L172 26L173 26L173 29L170 30L167 29L167 26L167 20L166 20L164 18L164 17L160 16L158 18L158 21L156 23L156 25L157 27L158 28L159 28L159 31L155 30L153 25L149 22L145 22L143 23L141 25L140 28L142 30L144 28L146 27L148 29L148 32L149 34L150 36L155 38L155 42L157 43L156 44L160 46L159 50L162 50L165 52L176 52L186 51L192 48L191 45L195 43L196 41L197 38L198 37L201 35L202 34L204 30L203 26L205 24L207 23L209 23L211 25L209 27L212 29L213 25L212 23L211 22L209 21L207 21L202 24L200 22L195 22L195 21L195 17L193 15L190 15L186 19L182 21L181 19L178 17L177 14Z M172 47L179 47L181 49L170 49Z M161 41L162 40L165 41L164 45L161 46L161 43L159 42Z M185 39L189 38L192 39L194 41L192 43L191 45L187 43L187 41Z M171 38L175 39L175 42L170 42Z M175 38L186 38L183 40L182 43L178 42L179 41L178 39Z M190 33L196 33L192 34Z M153 32L159 34L156 35L155 36L153 36L151 34Z M194 30L192 31L191 29Z M164 25L166 31L172 32L169 34L162 33L161 27Z M181 24L183 25L184 29L181 29L179 26Z M147 25L149 24L153 28L150 32L149 27Z M176 19L176 22L175 22L173 20Z M189 18L193 18L192 21L194 22L194 24L192 26L191 26L189 28L188 33L178 32L174 33L172 31L175 29L176 25L178 29L183 30L185 30L187 28L187 26L185 24L183 23L185 21L188 20Z M161 17L163 21L166 22L165 26L163 23L160 24L159 20L160 19Z"/>
</svg>
