<svg xmlns="http://www.w3.org/2000/svg" viewBox="0 0 320 70" aria-hidden="true">
  <path fill="#8fa07f" fill-rule="evenodd" d="M89 26L89 28L92 28L93 27L95 26Z M51 15L55 18L52 16Z M274 12L272 15L270 15L274 15Z M61 14L61 15L59 17L63 13L66 15L65 13Z M231 11L230 13L227 14L221 15L219 12L217 12L220 17L221 19L220 16L226 14L228 14L230 14L232 17L235 19L233 17Z M77 11L77 14L75 17L78 14L87 14L88 11L86 15L83 15L82 14L77 13Z M243 12L243 14L244 12L247 15L250 17L246 13L246 9Z M31 11L35 14L36 17L34 13L33 10L33 8Z M240 7L243 9L242 7Z M50 11L48 11L47 14L45 16L47 14L47 13L51 12L52 7Z M69 6L68 7L65 8L67 8L69 6L71 6Z M264 5L262 6L260 9L257 10L257 13L258 10L260 10L263 12L265 13L262 10L262 7Z M235 5L233 7L237 5Z M251 4L248 6L250 5L253 5L255 6L257 8L256 6L254 6L253 4Z M38 2L33 4L35 5L36 3Z M267 2L270 2L273 3L271 3L269 1Z M102 0L106 4L106 5L114 13L117 15L124 19L129 20L136 24L133 25L132 24L128 24L115 20L110 20L105 19L102 18L100 16L100 21L99 23L97 25L99 23L100 20L104 19L106 19L111 20L124 24L128 24L133 26L126 27L121 28L112 31L102 36L99 39L101 40L106 41L108 41L115 40L119 38L121 37L127 33L129 32L133 31L137 30L150 30L152 32L150 33L149 34L146 34L143 35L140 37L138 38L140 38L143 36L146 36L149 35L154 32L156 32L159 33L164 35L169 38L168 36L166 36L158 31L162 29L172 29L175 30L178 31L180 32L190 38L195 40L198 41L204 42L207 41L211 37L207 35L201 34L196 31L193 30L190 30L187 28L183 27L173 26L177 24L189 21L198 19L203 19L205 19L205 17L206 15L203 18L198 19L190 20L186 22L181 23L176 22L178 20L181 18L193 11L200 5L201 4L204 0L189 0L183 3L180 5L178 7L174 12L170 17L169 20L165 25L161 29L159 30L156 31L154 31L151 30L148 29L146 28L145 27L144 26L142 24L141 21L132 11L123 2L121 1L119 0Z" opacity="0.92"/>
  <path fill="#775d87" fill-rule="evenodd" d="M210 12L208 13L206 17L207 21L209 22L211 23L214 24L220 23L220 18L218 14L216 12L214 13Z M88 12L88 14L85 16L87 21L88 23L89 25L94 26L96 25L98 23L99 21L99 14L96 13L94 11Z M233 8L232 10L232 13L233 15L234 17L237 20L242 19L243 11L242 9L241 8L239 7Z M250 6L248 7L247 13L249 15L251 17L255 17L256 15L256 9L255 7L253 6Z M56 5L54 6L52 8L52 12L54 17L56 18L58 17L60 15L60 14L64 11L66 13L67 16L70 19L72 19L74 17L76 14L76 10L75 8L73 7L69 7L67 9L65 9L63 11L62 8L61 6L59 5Z M65 9L67 11L64 11Z M265 4L265 5L263 7L263 10L267 14L273 13L273 11L272 5L270 3Z M36 4L35 6L36 7L34 8L34 10L36 13L36 15L37 17L39 18L44 17L44 16L46 14L48 9L46 7L45 7L42 4L40 4Z" opacity="0.95"/>
</svg>
