<svg xmlns="http://www.w3.org/2000/svg" viewBox="0 0 245 320" role="img" aria-hidden="true">
  <path fill="#26211d" fill-rule="evenodd" d="M119 239L118 244L120 242Z M122 237L122 241L123 239L124 238L124 236Z M95 238L97 240L99 240L102 243L106 243L108 244L106 242L106 241L104 240L103 242L101 240L99 237L98 239L96 235Z M66 106L67 109L69 110L73 110L75 105L73 107L70 107L68 105Z M150 87L147 91L142 91L144 93L148 93L151 90L152 88Z M60 77L60 78L58 80L56 77L54 77L54 79L55 81L58 82L60 81L61 80L62 78L62 76Z M69 75L69 77L70 82L73 89L73 91L70 93L72 94L74 93L74 86L71 79L71 74Z M82 76L79 77L78 76L76 76L78 79L82 79L84 77L84 73Z M139 65L139 68L138 69L137 74L136 81L137 83L141 83L141 81L138 80L138 78L139 77L140 73L141 65Z M156 64L156 65L154 66L152 64L150 64L153 68L155 68L158 66L159 63Z M129 66L131 67L135 62L133 62L131 65L129 62Z M143 31L138 32L132 35L127 38L126 41L122 45L121 47L122 65L117 67L116 71L117 74L118 76L119 77L120 77L122 79L123 85L129 96L131 98L134 99L136 100L137 103L135 105L131 106L127 107L122 107L119 108L117 109L115 111L115 112L112 115L107 123L104 128L102 133L101 135L99 136L92 129L82 119L79 115L80 113L83 110L84 108L85 106L86 103L87 99L87 93L88 90L91 88L93 83L93 79L91 75L90 75L89 62L88 54L87 52L84 49L82 48L81 49L79 48L77 45L73 43L55 43L52 44L49 45L47 46L44 48L41 50L38 53L37 55L37 57L35 58L34 60L33 65L33 70L34 75L35 77L38 81L39 79L37 77L36 74L36 67L39 69L40 70L41 72L41 77L43 80L41 85L39 83L35 83L33 85L33 88L34 90L36 91L41 90L39 89L35 88L36 85L38 85L44 86L44 84L45 83L46 75L46 71L45 70L46 66L48 65L58 65L61 64L74 59L76 57L78 57L81 59L83 61L85 64L86 66L86 69L88 72L86 76L86 95L85 100L84 104L81 110L77 114L76 114L72 121L72 123L70 125L69 123L67 121L65 121L63 120L62 118L64 116L61 117L59 119L57 118L55 116L55 114L53 114L49 110L48 108L47 106L45 101L44 98L45 95L43 93L42 98L43 102L46 109L47 111L56 119L58 122L57 124L54 128L55 131L59 135L59 137L56 142L56 146L59 149L60 154L62 156L64 162L65 162L67 167L68 173L68 198L67 201L63 209L61 212L59 215L51 222L46 227L45 230L41 234L40 225L41 220L42 218L44 216L47 216L48 214L46 208L46 204L48 192L48 162L49 161L48 151L48 154L47 155L46 166L46 195L45 202L43 204L33 203L32 200L33 184L34 178L36 170L39 158L42 147L43 143L46 135L47 132L50 128L51 124L53 122L53 120L50 122L50 124L49 126L47 128L46 130L45 132L43 138L40 147L37 158L36 162L36 166L33 174L32 178L31 186L32 205L32 207L31 214L34 217L37 218L38 216L40 236L41 236L42 251L41 253L43 271L43 282L39 286L39 289L41 291L48 291L51 290L56 288L57 283L58 266L59 256L60 250L61 244L63 235L70 216L72 220L72 236L71 266L72 279L74 281L75 284L73 287L73 289L74 291L76 292L79 293L83 293L84 292L89 294L85 298L86 302L92 304L92 308L94 309L101 309L104 308L106 306L106 304L107 302L112 301L116 300L119 301L120 303L120 305L121 307L130 308L132 308L134 307L135 305L136 302L139 301L140 299L141 294L143 294L149 291L151 289L152 289L153 288L156 284L157 281L157 267L156 264L154 262L153 259L151 259L151 263L150 266L149 268L148 269L146 271L142 272L142 254L144 239L143 232L144 224L145 219L146 217L148 215L149 213L149 211L153 210L154 212L155 215L156 218L157 223L157 229L158 234L160 239L161 245L161 257L162 263L164 268L165 274L165 280L166 285L168 287L168 290L169 292L173 293L177 292L182 291L184 290L187 287L187 285L185 283L184 283L183 260L182 246L180 238L179 230L180 218L182 219L185 222L187 222L187 214L185 208L185 201L183 195L182 182L181 177L179 172L178 167L178 162L176 157L175 150L176 139L185 148L190 154L193 158L197 163L197 165L204 171L207 175L207 180L208 182L212 181L215 182L217 181L218 177L220 177L222 178L224 177L225 173L228 172L228 168L226 166L223 164L219 164L215 160L213 153L210 150L207 143L203 138L203 136L200 132L194 126L193 123L187 116L184 114L184 113L181 110L178 108L175 106L170 106L162 104L157 102L158 99L161 98L164 95L167 91L168 89L169 84L171 82L175 81L178 78L178 73L176 68L178 64L178 55L177 51L175 48L174 44L171 46L171 51L169 47L169 40L165 36L163 35L161 34L151 31Z M131 295L131 298L128 297Z M92 295L94 295L96 297L94 299L90 297Z M76 286L80 285L81 286L84 285L85 287L86 288L85 291L78 291L76 290L76 287Z M44 284L49 286L51 284L56 285L54 287L52 288L46 290L44 290L40 287L42 285Z M181 283L183 284L184 288L182 289L180 290L176 291L170 290L169 288L172 285L174 284Z M108 278L111 283L113 280L115 281L117 285L118 295L114 297L111 299L107 297Z M121 270L122 274L124 276L125 279L125 296L128 299L131 300L132 301L133 303L133 305L131 307L129 303L130 306L126 306L126 302L124 307L122 305L121 302L120 299L119 295L118 287L118 273Z M103 268L105 271L106 273L106 281L105 304L102 307L99 306L99 304L97 304L96 302L97 300L99 296L98 291L98 289L99 282L101 280L101 275Z M153 264L154 266L155 267L155 273L156 276L156 279L154 280L152 278L153 276L150 274L151 267L152 266Z M112 222L111 231L109 229L109 227L111 226Z M122 220L125 223L128 224L130 226L130 230L132 235L129 237L129 246L127 250L126 247L123 250L122 253L120 255L118 255L117 257L116 259L116 261L118 260L119 257L122 256L123 252L125 251L126 249L127 252L126 253L126 256L124 261L123 263L122 265L117 271L116 275L114 277L111 277L109 275L107 271L101 258L99 256L99 252L102 255L105 258L105 259L108 261L106 255L102 254L101 251L99 251L98 249L95 248L94 246L94 243L93 239L91 238L90 236L91 231L92 228L96 224L100 221L102 222L104 224L105 224L106 225L107 227L107 229L109 233L113 233L115 231L116 224L119 223Z M34 206L36 205L43 205L44 207L45 208L42 213L41 215L38 213L36 215L35 210L33 208Z M108 195L114 196L113 208L114 210L116 213L118 215L121 218L117 222L115 222L112 219L115 215L113 213L108 213L106 215L109 218L108 221L107 221L104 221L103 221L102 216L104 213L107 209L108 207L108 205L108 202L107 199Z M71 191L80 192L80 194L82 197L82 200L81 201L84 205L86 205L88 203L89 208L87 212L89 214L88 216L86 220L87 222L87 228L89 227L90 231L89 232L88 237L87 245L87 250L88 258L89 259L88 266L87 265L83 267L82 269L81 274L83 281L75 281L74 279L73 273L72 212L70 212L68 215L66 220L65 223L65 226L62 232L61 237L60 241L59 246L58 253L56 267L55 282L50 283L46 282L44 280L43 258L43 245L44 233L47 229L56 221L59 218L61 215L63 212L66 207L67 205L67 203L69 201L70 197Z M147 185L150 188L156 188L160 189L163 191L167 195L169 198L171 201L172 203L173 206L173 209L174 211L176 213L177 215L178 226L178 237L180 245L181 252L180 256L182 263L181 273L181 281L179 282L176 283L171 284L168 283L167 281L166 278L166 270L163 259L163 248L162 241L161 236L159 231L158 226L158 219L157 215L155 209L153 207L151 207L149 208L148 211L147 213L144 217L143 220L142 226L142 245L140 257L141 263L136 263L133 263L133 260L134 259L135 254L135 246L135 244L133 242L133 231L131 227L133 225L133 222L132 221L133 217L133 215L132 213L132 209L130 206L130 204L132 202L135 205L137 205L138 203L138 201L137 198L134 193L137 190L141 189L145 186Z M91 175L93 174L98 178L100 180L100 184L98 186L93 184L93 182L91 180L92 177L89 176Z M216 166L219 165L222 166L224 167L227 170L225 172L222 171L220 176L216 174L215 176L216 177L214 179L211 176L210 178L209 174Z M213 161L216 164L206 170L207 168L210 164Z M97 160L100 162L100 165L96 166L95 170L93 168L93 164Z M115 156L117 181L117 192L115 194L103 193L103 186L101 181L107 175L110 169L110 165L111 160Z M61 137L63 142L64 151L63 155L61 149L59 147L58 145L58 142Z M76 135L78 136L80 138L81 138L82 143L81 146L79 149L78 153L77 157L75 146L75 144L76 142Z M67 131L69 130L73 134L73 136L73 149L74 159L75 167L76 174L77 182L78 186L79 187L78 190L72 190L70 188L69 181L69 179L70 177L69 167L66 158L65 152L65 144L64 143L64 136L65 134L67 132Z M59 124L60 127L61 128L60 131L56 129L57 127Z M62 123L66 123L66 130L64 132L63 130L64 126Z M149 121L149 124L150 127L151 129L150 135L149 140L145 145L144 141L144 133L145 126Z M81 120L91 131L95 134L96 135L102 142L105 146L108 151L109 153L109 167L107 172L101 178L99 177L95 173L98 172L99 168L101 168L102 166L103 161L102 159L101 158L100 158L99 157L98 155L97 152L92 147L90 147L91 149L92 150L94 151L94 152L96 154L97 156L96 159L92 162L91 165L91 172L89 173L87 176L87 179L89 181L88 184L89 186L92 186L94 188L92 189L91 190L89 190L82 194L81 192L81 186L79 179L78 172L78 162L80 161L80 152L83 145L84 141L83 137L80 136L78 134L81 130L81 126L79 123Z M76 120L77 122L78 123L79 128L80 130L78 131L76 134Z M144 119L144 127L143 128L142 130L141 125L140 124L140 120Z M140 108L143 110L144 113L142 117L140 119L140 116Z M158 107L161 110L163 115L162 117L159 119L158 121L162 125L161 127L160 129L155 137L152 141L151 135L152 130L155 120L156 114Z M152 108L155 108L155 110L154 111L152 115L149 112L152 109Z M136 107L138 115L138 123L139 128L140 132L142 136L141 139L138 134L135 130L131 125L132 123L134 121L134 118L131 115L132 113Z M133 109L131 111L128 117L130 119L131 119L132 121L130 123L130 127L131 129L135 133L139 140L143 144L143 146L146 149L147 151L145 153L146 179L146 183L144 185L141 187L139 188L137 188L135 190L133 191L129 188L125 188L122 189L119 189L118 185L117 166L118 161L118 159L118 147L117 144L116 152L112 157L111 153L110 151L109 149L106 144L103 141L103 140L101 138L102 135L106 128L109 123L112 120L114 115L119 110L122 109L126 108Z M160 106L163 106L167 107L172 107L175 108L177 109L189 122L192 126L194 129L197 132L198 135L203 140L205 143L208 150L212 155L213 157L213 159L207 166L205 168L203 168L201 166L196 160L194 156L190 151L186 146L185 145L184 145L176 136L174 136L173 150L174 156L176 161L177 171L178 176L180 180L181 186L182 193L183 207L185 212L184 219L176 211L175 209L173 201L172 199L169 196L168 193L166 191L163 189L161 188L159 187L153 187L150 186L148 184L148 179L146 173L146 171L146 164L147 153L148 151L153 142L158 136L160 133L162 130L164 124L161 121L163 119L165 116L165 113Z M140 102L143 102L144 103L148 103L149 102L155 103L154 106L150 109L146 111L143 108L142 108L140 106L139 104Z M91 78L91 83L89 87Z M120 67L120 75L119 73L118 72L118 69Z M173 59L175 66L174 68L171 71L170 68L172 65Z M38 56L41 56L41 57L41 59L51 60L58 59L59 62L49 64L46 64L45 63L43 63L43 66L43 73L42 68L41 63L39 61L36 61L37 58Z M52 50L56 51L53 53L51 54L47 53L49 51Z M79 49L82 50L84 51L85 53L83 53L82 55L85 56L86 58L85 61L84 59L82 57L81 57L80 54L78 54L76 55L74 57L71 58L68 57L70 55L73 54L76 52L77 50Z M125 45L126 47L124 54L123 47Z M63 44L73 45L75 46L76 49L72 53L68 53L70 51L68 52L64 54L55 57L51 56L54 54L60 51L63 50L66 49L70 48L67 48L64 47L60 49L58 47L53 48L52 49L48 48L52 46L55 45Z M132 43L137 42L139 44L135 45L134 44Z M130 39L132 41L130 43L129 45Z M156 37L160 37L162 38L166 42L167 44L167 47L166 48L166 50L167 62L168 63L168 78L170 77L171 74L173 72L176 73L176 74L177 76L172 81L169 82L169 83L167 85L167 87L166 89L163 93L159 97L156 99L153 100L149 101L143 101L140 100L137 99L135 98L132 96L130 94L125 85L124 83L123 79L123 64L124 58L128 48L129 46L132 45L135 46L139 48L143 49L146 50L150 50L156 49L162 45L159 45L161 43L145 43L144 42L142 41L148 40Z M138 34L139 36L143 37L141 38L140 39L134 36L136 35Z"/>
</svg>
